<svg width="42" height="42" viewBox="0 0 42 42" fill="none" xmlns="http://www.w3.org/2000/svg">
<mask id="mask0_147_13" style="mask-type:alpha" maskUnits="userSpaceOnUse" x="0" y="0" width="42" height="42">
<rect width="42" height="42" fill="#D9D9D9"/>
</mask>
<g mask="url(#mask0_147_13)">
<path d="M26.2501 33.2501C25.2876 33.2501 24.4636 32.9074 23.7782 32.2219C23.0928 31.5365 22.7501 30.7126 22.7501 29.7501V12.2501C22.7501 11.2876 23.0928 10.4636 23.7782 9.77819C24.4636 9.09277 25.2876 8.75006 26.2501 8.75006H29.7501C30.7126 8.75006 31.5365 9.09277 32.2219 9.77819C32.9074 10.4636 33.2501 11.2876 33.2501 12.2501V29.7501C33.2501 30.7126 32.9074 31.5365 32.2219 32.2219C31.5365 32.9074 30.7126 33.2501 29.7501 33.2501H26.2501ZM12.2501 33.2501C11.2876 33.2501 10.4636 32.9074 9.77819 32.2219C9.09277 31.5365 8.75006 30.7126 8.75006 29.7501V12.2501C8.75006 11.2876 9.09277 10.4636 9.77819 9.77819C10.4636 9.09277 11.2876 8.75006 12.2501 8.75006H15.7501C16.7126 8.75006 17.5365 9.09277 18.2219 9.77819C18.9074 10.4636 19.2501 11.2876 19.2501 12.2501V29.7501C19.2501 30.7126 18.9074 31.5365 18.2219 32.2219C17.5365 32.9074 16.7126 33.2501 15.7501 33.2501H12.2501ZM26.2501 29.7501H29.7501V12.2501H26.2501V29.7501ZM12.2501 29.7501H15.7501V12.2501H12.2501V29.7501Z" fill="#EAE7AF"/>
</g>
</svg>
