<svg width="49" height="48" viewBox="0 0 49 48" fill="none" xmlns="http://www.w3.org/2000/svg">
<mask id="mask0_7_4" style="mask-type:alpha" maskUnits="userSpaceOnUse" x="0" y="0" width="49" height="48">
<rect x="0.5" width="48" height="48" fill="#D9D9D9"/>
</mask>
<g mask="url(#mask0_7_4)">
<path d="M16.5 34.35V13.65C16.5 13.0834 16.7 12.6084 17.1 12.225C17.5 11.8417 17.9667 11.65 18.5 11.65C18.6667 11.65 18.8417 11.675 19.025 11.725C19.2083 11.775 19.3833 11.85 19.55 11.95L35.85 22.3C36.15 22.5 36.375 22.75 36.525 23.05C36.675 23.35 36.75 23.6667 36.75 24C36.75 24.3334 36.675 24.65 36.525 24.95C36.375 25.25 36.15 25.5 35.85 25.7L19.55 36.05C19.3833 36.15 19.2083 36.225 19.025 36.275C18.8417 36.325 18.6667 36.35 18.5 36.35C17.9667 36.35 17.5 36.1584 17.1 35.775C16.7 35.3917 16.5 34.9167 16.5 34.35ZM20.5 30.7L31 24L20.5 17.3V30.7Z" fill="#EAE7AF"/>
</g>
</svg>
