<svg width="35" height="35" viewBox="0 0 35 35" fill="none" xmlns="http://www.w3.org/2000/svg">
<path d="M20.3122 4.35445C19.605 3.64728 18.6459 3.25 17.6458 3.25C16.6457 3.25 15.6866 3.64728 14.9795 4.35445C14.2723 5.06162 13.875 6.02074 13.875 7.02083V13.875H7.02083C6.02074 13.875 5.06162 14.2723 4.35445 14.9795C3.64728 15.6866 3.25 16.6457 3.25 17.6458C3.25 18.6459 3.64728 19.605 4.35445 20.3122C5.06162 21.0194 6.02075 21.4167 7.02083 21.4167H13.875V28.2708C13.875 29.2709 14.2723 30.23 14.9795 30.9372C15.6866 31.6444 16.6458 32.0417 17.6458 32.0417C18.6459 32.0417 19.605 31.6444 20.3122 30.9372C21.0194 30.23 21.4167 29.2709 21.4167 28.2708V21.4167H28.2708C29.2709 21.4167 30.23 21.0194 30.9372 20.3122C31.6444 19.605 32.0417 18.6459 32.0417 17.6458C32.0417 16.6458 31.6444 15.6866 30.9372 14.9795C30.23 14.2723 29.2709 13.875 28.2708 13.875H21.4167V7.02083C21.4167 6.02074 21.0194 5.06162 20.3122 4.35445Z" stroke="#EAE7AF" stroke-width="4"/>
</svg>
